<svg width="561" height="94" viewBox="0 0 561 94" fill="none" xmlns="http://www.w3.org/2000/svg">
<path d="M90.725 60.1764C84.6047 80.4466 68.0438 94 46.5626 94C19.8011 94 0 73.6099 0 47.3426C0 20.9553 19.8011 0.565172 46.5626 0.565172C67.6837 0.565172 84.7247 13.6389 90.725 33.4293H81.1245C75.6042 19.0362 63.3635 9.201 46.5626 9.201C24.8414 9.201 9.36052 25.3932 9.36052 47.3426C9.36052 69.172 24.8414 85.3642 46.5626 85.3642C63.6035 85.3642 76.2042 75.1691 81.3645 60.1764H90.725Z" fill="#77FFCF"/>
<path d="M104.046 92.2009L111.006 64.3743H146.048L153.008 92.2009H162.609L139.808 2.24436H117.126L94.4452 92.2009H104.046ZM132.607 10.6403L143.888 55.9784H113.046L124.327 10.6403H132.607Z" fill="#77FFCF"/>
<path d="M349.986 57.4177H328.505V92.2009H319.505V2.24436H349.866C369.667 2.24436 381.068 13.8787 381.068 29.7111C381.068 45.7833 369.667 57.4177 349.986 57.4177ZM350.466 10.6403H328.505V49.0218H349.986C365.707 49.0218 371.707 40.0261 371.707 29.7111C371.707 19.8758 365.827 10.6403 350.466 10.6403Z" fill="#77FFCF"/>
<path d="M457.066 58.857C457.066 80.6864 444.345 94 424.184 94C404.143 94 391.302 80.6864 391.302 58.857V2.24436H400.303V59.6966C400.303 75.0492 408.943 85.3642 424.184 85.3642C439.545 85.3642 448.065 75.0492 448.065 59.6966V2.24436H457.066V58.857Z" fill="#77FFCF"/>
<path d="M511.637 83.8049V92.2009H474.435V2.24436H483.435V83.8049H511.637Z" fill="#77FFCF"/>
<path d="M537.719 92.2009H528.718V10.6403H505.557V2.24436H561V10.6403H537.719V92.2009Z" fill="#77FFCF"/>
<path fill-rule="evenodd" clip-rule="evenodd" d="M199.42 10.6402V92.2007H189.82V10.8911C189.82 10.8911 174.98 22.9261 164.018 16.6373C153.057 10.3484 155.154 1.0448 155.154 1.0448C177.819 -0.754318 194.02 0.0664925 199.42 1.28921C202.42 1.96849 211.312 2.84393 225.822 11.2399C233.979 15.9599 244.94 24.5539 245.623 25.0332C246.074 23.9022 247.127 19.9003 247.65 18.7931C249.168 15.6791 250.999 12.9209 253.142 10.5187C255.286 8.02743 257.742 6.02556 260.51 4.51302C263.279 3.00049 265.424 2.84393 267.224 2.84393C269.024 2.84393 271.25 3.00049 273.929 4.51302C276.698 6.02556 279.154 8.02743 281.297 10.5187C283.441 12.9209 285.272 15.6791 286.79 18.7931C288.308 21.8182 289.469 24.9322 290.273 28.1353L308.026 92.2007H298.3C280.245 70.3936 266.397 54.7891 250.725 40.8334L243.222 67.3739L236.505 92.2007H227.022L243.246 34.7833C241.885 33.7909 232.821 26.2445 225.822 21.1988C219.821 16.8734 206.62 10.5187 199.42 10.6402ZM280.08 27.4697L293.883 73.01C280.82 56.9801 264.917 42.333 253.423 32.2297L254.359 27.4697C254.806 25.7792 255.431 24.0887 256.235 22.3982C257.038 20.7078 257.976 19.1952 259.048 17.8606C260.12 16.526 261.325 15.4584 262.665 14.6576C264.094 13.7679 265.612 13.323 267.22 13.323C268.917 13.323 270.435 13.7679 271.775 14.6576C273.203 15.4584 274.454 16.526 275.526 17.8606C276.597 19.1952 277.49 20.7078 278.205 22.3982C279.009 24.0887 279.634 25.7792 280.08 27.4697Z" fill="#77FFCF"/>
</svg>